<?xml version="1.0" encoding="UTF-8" standalone="no"?>
<!DOCTYPE svg PUBLIC "-//W3C//DTD SVG 1.1//EN" "http://www.w3.org/Graphics/SVG/1.1/DTD/svg11.dtd">
<svg xmlns="http://www.w3.org/2000/svg" version="1.1" viewBox="0.00 0.00 337.00 333.00">
<g stroke-width="2.00" fill="none" stroke-linecap="butt">
<path stroke="#3a1506" vector-effect="non-scaling-stroke" d="
  M 182.76 46.06
  A 1.37 1.36 -39.5 0 0 182.94 44.25
  Q 182.56 43.74 182.05 44.05
  A 1.13 1.05 38.1 0 0 182.36 45.98
  Q 182.70 46.11 182.76 46.06"
/>
<path stroke="#602e14" vector-effect="non-scaling-stroke" d="
  M 156.22 66.84
  Q 154.09 67.23 154.87 69.33"
/>
<path stroke="#070201" vector-effect="non-scaling-stroke" d="
  M 154.87 69.33
  Q 137.79 86.59 127.49 108.23
  C 121.56 120.67 116.16 134.76 114.45 148.02
  Q 112.79 160.92 117.10 175.92"
/>
<path stroke="#7e400a" vector-effect="non-scaling-stroke" d="
  M 117.10 175.92
  L 115.95 175.18"
/>
<path stroke="#733810" vector-effect="non-scaling-stroke" d="
  M 115.95 175.18
  L 109.53 171.10"
/>
<path stroke="#602e14" vector-effect="non-scaling-stroke" d="
  M 109.53 171.10
  Q 103.31 167.51 91.06 159.93
  Q 77.97 151.84 68.35 141.17
  A 0.26 0.26 0.0 0 0 67.90 141.30
  L 67.68 142.67"
/>
<path stroke="#0d0c0c" vector-effect="non-scaling-stroke" d="
  M 67.68 142.67
  Q 64.17 153.55 64.65 162.26
  C 65.09 170.12 64.96 175.74 66.19 181.55
  Q 68.87 194.14 71.42 200.14
  Q 78.31 216.36 92.00 228.25
  Q 95.43 231.22 101.75 235.07"
/>
<path stroke="#140c0a" vector-effect="non-scaling-stroke" d="
  M 101.75 235.07
  C 113.77 242.16 127.50 245.69 141.16 248.04
  Q 149.76 249.53 167.80 249.99"
/>
<path stroke="#1b0c07" vector-effect="non-scaling-stroke" d="
  M 167.80 249.99
  Q 168.70 249.95 168.91 249.80
  A 0.81 0.73 -29.4 0 0 169.21 248.89
  L 163.23 234.27"
/>
<path stroke="#7e400a" vector-effect="non-scaling-stroke" d="
  M 163.23 234.27
  L 161.93 231.03"
/>
<path stroke="#070201" vector-effect="non-scaling-stroke" d="
  M 161.93 231.03
  Q 176.17 228.60 183.40 215.71
  Q 186.52 210.13 190.14 205.07
  Q 194.73 198.66 204.38 188.29
  A 3.27 3.18 -11.5 0 0 204.96 187.44
  C 217.36 162.00 222.23 136.34 214.62 108.95
  Q 208.27 86.09 189.27 72.57
  C 179.01 65.27 168.36 63.71 156.22 66.84"
/>
<path stroke="#84410a" vector-effect="non-scaling-stroke" d="
  M 161.93 231.03
  L 156.62 219.91"
/>
<path stroke="#170401" vector-effect="non-scaling-stroke" d="
  M 156.62 219.91
  C 171.74 215.66 183.42 208.34 192.23 195.30
  C 211.28 167.06 215.18 131.30 198.88 100.66
  Q 194.56 92.52 188.01 83.25"
/>
<path stroke="#662f14" vector-effect="non-scaling-stroke" d="
  M 188.01 83.25
  Q 188.46 82.61 188.30 82.08
  Q 188.13 81.53 187.37 81.40
  Q 186.03 81.17 185.75 82.47"
/>
<path stroke="#170401" vector-effect="non-scaling-stroke" d="
  M 185.75 82.47
  Q 178.97 82.33 174.03 83.11
  C 158.69 85.53 148.03 98.10 140.47 111.52
  C 129.80 130.43 122.91 151.47 124.51 173.39
  Q 124.82 177.62 125.24 181.86"
/>
<path stroke="#84410a" vector-effect="non-scaling-stroke" d="
  M 125.24 181.86
  L 117.10 175.92"
/>
<path stroke="#662f14" vector-effect="non-scaling-stroke" d="
  M 154.87 69.33
  Q 155.68 69.63 156.32 69.39
  Q 157.11 69.10 157.13 68.27
  Q 157.14 67.46 156.22 66.84"
/>
<path stroke="#703014" vector-effect="non-scaling-stroke" d="
  M 185.75 82.47
  Q 186.12 83.94 188.01 83.25"
/>
<path stroke="#8e420a" vector-effect="non-scaling-stroke" d="
  M 156.62 219.91
  Q 145.09 197.55 125.24 181.86"
/>
<path stroke="#984b10" vector-effect="non-scaling-stroke" d="
  M 163.23 234.27
  Q 161.65 232.27 160.32 230.31
  Q 158.51 227.63 157.44 226.34
  Q 141.29 207.01 118.52 196.12"
/>
<path stroke="#904b13" vector-effect="non-scaling-stroke" d="
  M 118.52 196.12
  C 110.06 191.57 102.23 188.12 93.34 182.65"
/>
<path stroke="#f07719" vector-effect="non-scaling-stroke" d="
  M 115.95 175.18
  C 116.87 180.47 118.53 187.18 116.46 192.31
  A 0.49 0.48 -66.7 0 1 115.81 192.57
  L 105.44 187.89"
/>
<path stroke="#894b15" vector-effect="non-scaling-stroke" d="
  M 92.49 182.04
  L 93.34 182.65"
/>
<path stroke="#1f1714" vector-effect="non-scaling-stroke" d="
  M 93.34 182.65
  Q 95.33 196.42 99.22 213.51
  Q 101.45 223.32 101.75 235.07"
/>
<path stroke="#2e170f" vector-effect="non-scaling-stroke" d="
  M 118.52 196.12
  Q 124.80 216.32 136.63 234.04
  A 2.27 2.22 88.9 0 0 137.35 234.75
  Q 143.90 238.87 151.05 241.83
  C 156.46 244.07 162.09 247.44 167.80 249.99"
/>
<path stroke="#d26523" vector-effect="non-scaling-stroke" d="
  M 109.53 171.10
  Q 108.36 179.85 105.44 187.89"
/>
<path stroke="#dc6d1d" vector-effect="non-scaling-stroke" d="
  M 105.44 187.89
  C 101.48 185.87 96.90 182.78 92.49 182.04"
/>
<path stroke="#6b391e" vector-effect="non-scaling-stroke" d="
  M 92.49 182.04
  Q 82.03 175.45 75.18 166.07
  Q 68.02 156.28 67.68 142.67"
/>
<path stroke="#733810" vector-effect="non-scaling-stroke" d="
  M 239.98 164.89
  Q 228.12 171.75 217.28 179.64"
/>
<path stroke="#7e400a" vector-effect="non-scaling-stroke" d="
  M 217.28 179.64
  Q 200.22 192.23 189.13 210.05
  Q 183.71 218.75 177.78 230.75
  Q 176.68 232.96 176.22 234.84"
/>
<path stroke="#1b0c07" vector-effect="non-scaling-stroke" d="
  M 176.22 234.84
  L 170.08 249.03
  A 0.58 0.57 -65.3 0 0 170.35 249.77
  Q 171.58 250.41 173.61 249.71"
/>
<path stroke="#0d0c0c" vector-effect="non-scaling-stroke" d="
  M 173.61 249.71
  C 181.83 249.60 190.08 248.23 198.27 247.52
  Q 206.41 246.80 221.00 242.28
  Q 228.25 240.03 235.62 235.82
  C 243.91 231.10 251.49 225.81 256.63 218.89
  Q 263.03 210.25 266.12 203.65
  Q 267.03 201.72 270.25 191.43
  C 274.69 177.24 274.67 161.52 272.07 146.72
  Q 271.59 143.98 270.79 142.17"
/>
<path stroke="#602e14" vector-effect="non-scaling-stroke" d="
  M 270.79 142.17
  Q 271.19 141.03 270.52 140.84
  A 0.37 0.36 26.9 0 0 270.13 140.96
  C 262.49 150.84 251.05 158.29 239.98 164.89"
/>
<path stroke="#6b391e" vector-effect="non-scaling-stroke" d="
  M 270.79 142.17
  Q 270.33 163.43 254.27 176.52
  Q 249.99 180.01 245.70 182.76"
/>
<path stroke="#d26523" vector-effect="non-scaling-stroke" d="
  M 245.70 182.76
  Q 237.99 174.96 239.98 164.89"
/>
<path stroke="#864319" vector-effect="non-scaling-stroke" d="
  M 243.39 184.08
  L 232.76 189.97"
/>
<path stroke="#f07719" vector-effect="non-scaling-stroke" d="
  M 232.76 189.97
  Q 229.25 189.86 227.61 190.63
  Q 222.10 193.23 216.37 195.09
  A 0.45 0.45 0.0 0 1 215.79 194.75
  Q 214.19 187.09 217.28 179.64"
/>
<path stroke="#271711" vector-effect="non-scaling-stroke" d="
  M 173.61 249.71
  Q 181.68 243.67 191.26 240.27"
/>
<path stroke="#1f1714" vector-effect="non-scaling-stroke" d="
  M 191.26 240.27
  Q 200.73 236.78 208.45 232.90
  C 228.37 222.89 238.22 205.31 243.39 184.08"
/>
<path stroke="#7f431b" vector-effect="non-scaling-stroke" d="
  M 243.39 184.08
  L 245.70 182.76"
/>
<path stroke="#904b13" vector-effect="non-scaling-stroke" d="
  M 232.76 189.97
  L 220.91 196.10"
/>
<path stroke="#984b10" vector-effect="non-scaling-stroke" d="
  M 220.91 196.10
  Q 203.16 205.05 189.78 217.78
  Q 182.70 224.51 176.22 234.84"
/>
<path stroke="#2e170f" vector-effect="non-scaling-stroke" d="
  M 191.26 240.27
  Q 197.67 235.30 205.37 228.09
  Q 219.60 214.78 220.91 196.10"
/>
<path stroke="#070201" vector-effect="non-scaling-stroke" d="
  M 100.41 259.65
  A 0.95 0.95 0.0 0 0 100.73 261.20
  Q 104.30 262.64 109.85 263.26
  Q 133.55 265.92 156.97 265.77
  Q 208.07 265.46 220.50 265.20
  C 223.87 265.13 232.28 264.53 234.63 261.45
  A 1.96 1.70 44.6 0 0 234.45 259.15
  C 230.73 254.76 214.38 254.95 209.29 255.31
  C 196.19 256.25 185.48 257.19 172.33 256.79
  C 150.61 256.12 137.03 255.62 118.31 256.44
  C 114.14 256.63 102.78 257.28 100.41 259.65"
/>
<path stroke="#662f14" vector-effect="non-scaling-stroke" d="
  M 140.4506 95.6995
  A 1.29 1.17 -178.2 0 0 141.7032 96.9094
  A 1.29 1.17 -178.2 0 0 143.0294 95.7805
  A 1.29 1.17 -178.2 0 0 141.7768 94.5706
  A 1.29 1.17 -178.2 0 0 140.4506 95.6995"
/>
<path stroke="#8e420a" vector-effect="non-scaling-stroke" d="
  M 172.70 91.54
  Q 172.28 90.49 171.62 89.78
  A 0.22 0.21 26.7 0 0 171.25 89.90
  L 170.17 98.51"
/>
<path stroke="#280601" vector-effect="non-scaling-stroke" d="
  M 170.17 98.51
  C 161.88 98.98 156.53 102.61 150.10 107.46
  A 1.42 1.34 86.0 0 0 149.68 107.97
  L 146.29 115.26"
/>
<path stroke="#4a1706" vector-effect="non-scaling-stroke" d="
  M 146.29 115.26
  Q 145.69 115.50 145.46 115.98"
/>
<path stroke="#280601" vector-effect="non-scaling-stroke" d="
  M 145.46 115.98
  C 132.46 137.79 125.35 160.58 132.41 185.87
  A 1.93 1.91 -76.0 0 0 132.92 186.73
  Q 143.71 197.03 152.75 210.08
  A 0.88 0.87 69.3 0 0 153.57 210.46
  Q 161.26 209.61 166.54 208.21
  C 180.99 204.36 190.27 193.03 196.59 180.01
  Q 207.50 157.53 203.67 132.80
  C 201.45 118.48 194.85 103.75 182.01 96.12
  Q 178.12 93.81 172.70 91.54"
/>
<path stroke="#511806" vector-effect="non-scaling-stroke" d="
  M 145.46 115.98
  Q 145.35 116.65 145.63 116.83
  A 0.83 0.82 -57.0 0 0 146.81 116.57
  Q 147.04 116.18 146.85 115.58
  Q 146.75 115.25 146.29 115.26"
/>
<path stroke="#95430a" vector-effect="non-scaling-stroke" d="
  M 170.17 98.51
  L 166.04 109.17"
/>
<path stroke="#3f0b01" vector-effect="non-scaling-stroke" d="
  M 166.04 109.17
  Q 136.46 126.78 134.14 161.87
  Q 133.32 174.29 139.12 184.30
  C 146.76 197.50 161.59 207.20 175.82 196.61
  Q 181.89 192.08 184.84 188.35
  Q 187.93 184.44 193.46 174.75"
/>
<path stroke="#511806" vector-effect="non-scaling-stroke" d="
  M 193.46 174.75
  Q 198.98 165.38 199.71 154.65"
/>
<path stroke="#672207" vector-effect="non-scaling-stroke" d="
  M 199.71 154.65
  Q 200.52 150.01 199.42 145.06"
/>
<path stroke="#773113" vector-effect="non-scaling-stroke" d="
  M 199.42 145.06
  Q 199.04 139.98 197.00 135.14"
/>
<path stroke="#8a3b10" vector-effect="non-scaling-stroke" d="
  M 197.00 135.14
  L 193.71 127.40"
/>
<path stroke="#95430a" vector-effect="non-scaling-stroke" d="
  M 193.71 127.40
  Q 191.79 123.00 189.17 118.57
  Q 181.13 104.93 172.70 91.54"
/>
<path stroke="#9a3f11" vector-effect="non-scaling-stroke" d="
  M 141.60 173.80
  L 143.85 179.54"
/>
<path stroke="#873514" vector-effect="non-scaling-stroke" d="
  M 143.85 179.54
  L 144.69 181.47"
/>
<path stroke="#772608" vector-effect="non-scaling-stroke" d="
  M 144.69 181.47
  Q 147.58 187.43 152.31 192.50"
/>
<path stroke="#611c07" vector-effect="non-scaling-stroke" d="
  M 152.31 192.50
  L 156.59 196.66
  A 0.79 0.79 0.0 0 0 157.63 196.73
  L 163.60 192.23"
/>
<path stroke="#a7763b" vector-effect="non-scaling-stroke" d="
  M 163.60 192.23
  L 167.70 198.57"
/>
<path stroke="#611c07" vector-effect="non-scaling-stroke" d="
  M 167.70 198.57
  Q 169.12 196.86 170.48 195.69
  C 174.25 192.49 177.45 188.91 180.75 185.25
  Q 183.90 181.75 193.46 174.75"
/>
<path stroke="#d26523" vector-effect="non-scaling-stroke" d="
  M 197.00 135.14
  Q 194.56 142.41 192.97 145.25
  Q 187.46 155.05 186.09 157.89
  Q 181.26 167.92 172.26 171.68"
/>
<path stroke="#f2a649" vector-effect="non-scaling-stroke" d="
  M 172.26 171.68
  Q 172.20 171.53 172.28 171.28"
/>
<path stroke="#f29937" vector-effect="non-scaling-stroke" d="
  M 172.28 171.28
  Q 175.11 166.82 177.77 162.28
  Q 178.62 160.83 179.84 156.12"
/>
<path stroke="#f07719" vector-effect="non-scaling-stroke" d="
  M 193.71 127.40
  C 191.48 137.96 188.06 148.80 179.84 156.12"
/>
<path stroke="#fda231" vector-effect="non-scaling-stroke" d="
  M 179.84 156.12
  Q 181.37 147.79 178.74 138.53
  Q 177.53 134.23 176.34 132.56
  A 0.42 0.41 49.2 0 0 175.71 132.51
  C 169.39 139.02 167.31 145.88 166.15 154.55
  A 2.37 2.21 67.2 0 1 165.81 155.48
  Q 161.72 161.84 160.15 169.00"
/>
<path stroke="#fcae43" vector-effect="non-scaling-stroke" d="
  M 160.15 169.00
  L 159.41 177.39"
/>
<path stroke="#dc6d1d" vector-effect="non-scaling-stroke" d="
  M 159.41 177.39
  Q 153.64 177.29 148.21 179.78"
/>
<path stroke="#f07719" vector-effect="non-scaling-stroke" d="
  M 148.21 179.78
  Q 145.38 176.26 141.60 173.80"
/>
<path stroke="#a5470b" vector-effect="non-scaling-stroke" d="
  M 141.60 173.80
  C 138.70 164.05 140.18 155.18 144.37 146.10
  Q 151.36 130.96 161.39 117.64
  Q 163.38 115.01 166.04 109.17"
/>
<path stroke="#89330d" vector-effect="non-scaling-stroke" d="
  M 199.71 154.65
  C 196.12 160.56 193.03 167.77 188.37 172.61
  Q 178.78 182.57 166.31 191.21"
/>
<path stroke="#ce8d41" vector-effect="non-scaling-stroke" d="
  M 166.31 191.21
  Q 165.84 183.32 169.99 175.78"
/>
<path stroke="#ae4c1a" vector-effect="non-scaling-stroke" d="
  M 179.42 173.24
  Q 178.73 173.79 178.35 174.40
  A 0.12 0.12 0.0 0 0 178.53 174.56
  Q 179.23 174.00 179.42 173.24"
/>
<path stroke="#ae4c1a" vector-effect="non-scaling-stroke" d="
  M 199.42 145.06
  C 196.96 149.70 194.28 153.25 191.52 157.30
  Q 190.87 158.26 187.82 163.85
  Q 184.73 169.51 179.42 173.24
  Q 182.15 170.61 182.55 167.55
  A 0.34 0.34 0.0 0 0 181.94 167.31
  Q 177.38 173.73 169.99 175.78"
/>
<path stroke="#de9c4d" vector-effect="non-scaling-stroke" d="
  M 169.99 175.78
  L 172.26 171.68"
/>
<path stroke="#b9833f" vector-effect="non-scaling-stroke" d="
  M 167.70 198.57
  L 166.31 191.21"
/>
<path stroke="#d26523" vector-effect="non-scaling-stroke" d="
  M 148.21 179.78
  L 143.85 179.54"
/>
<path stroke="#b9833f" vector-effect="non-scaling-stroke" d="
  M 163.60 192.23
  L 161.06 186.77"
/>
<path stroke="#ce8d41" vector-effect="non-scaling-stroke" d="
  M 161.06 186.77
  L 159.62 180.05"
/>
<path stroke="#de9c4d" vector-effect="non-scaling-stroke" d="
  M 159.62 180.05
  L 159.41 177.39"
/>
<path stroke="#ae4c1a" vector-effect="non-scaling-stroke" d="
  M 159.62 180.05
  C 156.53 179.37 155.00 180.26 152.65 181.56
  C 149.93 183.06 147.46 182.87 144.69 181.47"
/>
<path stroke="#89330d" vector-effect="non-scaling-stroke" d="
  M 161.06 186.77
  L 152.31 192.50"
/>
<path stroke="#ffd161" vector-effect="non-scaling-stroke" d="
  M 172.28 171.28
  L 160.15 169.00"
/>
<path stroke="#8a3b10" vector-effect="non-scaling-stroke" d="
  M 153.19 109.60
  A 1.14 1.14 0.0 0 0 152.05 108.46
  A 1.14 1.14 0.0 0 0 150.91 109.60
  A 1.14 1.14 0.0 0 0 152.05 110.74
  A 1.14 1.14 0.0 0 0 153.19 109.60"
/>
<path stroke="#ffd161" vector-effect="non-scaling-stroke" d="
  M 167.18 135.63
  A 1.03 1.03 0.0 0 0 166.15 134.60
  A 1.03 1.03 0.0 0 0 165.12 135.63
  A 1.03 1.03 0.0 0 0 166.15 136.66
  A 1.03 1.03 0.0 0 0 167.18 135.63"
/>
<path stroke="#1a0d0a" vector-effect="non-scaling-stroke" d="
  M 214.41 262.36
  A 0.74 0.72 53.1 0 0 214.59 260.93
  Q 205.87 257.90 196.35 258.03
  Q 186.34 258.17 173.12 257.72
  C 158.76 257.22 143.10 257.42 133.34 257.91
  Q 127.72 258.19 123.44 259.20
  A 1.51 1.51 0.0 0 0 123.41 262.13
  C 127.76 263.23 132.24 263.93 136.97 264.12
  Q 174.77 265.64 213.55 263.15
  A 0.68 0.67 6.0 0 0 214.16 262.66
  Q 214.24 262.37 214.41 262.36"
/>
</g>
<path fill="#010101" d="
  M 337.00 0.00
  L 337.00 333.00
  L 0.00 333.00
  L 0.00 0.00
  L 337.00 0.00
  Z
  M 182.76 46.06
  A 1.37 1.36 -39.5 0 0 182.94 44.25
  Q 182.56 43.74 182.05 44.05
  A 1.13 1.05 38.1 0 0 182.36 45.98
  Q 182.70 46.11 182.76 46.06
  Z
  M 156.22 66.84
  Q 154.09 67.23 154.87 69.33
  Q 137.79 86.59 127.49 108.23
  C 121.56 120.67 116.16 134.76 114.45 148.02
  Q 112.79 160.92 117.10 175.92
  L 115.95 175.18
  L 109.53 171.10
  Q 103.31 167.51 91.06 159.93
  Q 77.97 151.84 68.35 141.17
  A 0.26 0.26 0.0 0 0 67.90 141.30
  L 67.68 142.67
  Q 64.17 153.55 64.65 162.26
  C 65.09 170.12 64.96 175.74 66.19 181.55
  Q 68.87 194.14 71.42 200.14
  Q 78.31 216.36 92.00 228.25
  Q 95.43 231.22 101.75 235.07
  C 113.77 242.16 127.50 245.69 141.16 248.04
  Q 149.76 249.53 167.80 249.99
  Q 168.70 249.95 168.91 249.80
  A 0.81 0.73 -29.4 0 0 169.21 248.89
  L 163.23 234.27
  L 161.93 231.03
  Q 176.17 228.60 183.40 215.71
  Q 186.52 210.13 190.14 205.07
  Q 194.73 198.66 204.38 188.29
  A 3.27 3.18 -11.5 0 0 204.96 187.44
  C 217.36 162.00 222.23 136.34 214.62 108.95
  Q 208.27 86.09 189.27 72.57
  C 179.01 65.27 168.36 63.71 156.22 66.84
  Z
  M 239.98 164.89
  Q 228.12 171.75 217.28 179.64
  Q 200.22 192.23 189.13 210.05
  Q 183.71 218.75 177.78 230.75
  Q 176.68 232.96 176.22 234.84
  L 170.08 249.03
  A 0.58 0.57 -65.3 0 0 170.35 249.77
  Q 171.58 250.41 173.61 249.71
  C 181.83 249.60 190.08 248.23 198.27 247.52
  Q 206.41 246.80 221.00 242.28
  Q 228.25 240.03 235.62 235.82
  C 243.91 231.10 251.49 225.81 256.63 218.89
  Q 263.03 210.25 266.12 203.65
  Q 267.03 201.72 270.25 191.43
  C 274.69 177.24 274.67 161.52 272.07 146.72
  Q 271.59 143.98 270.79 142.17
  Q 271.19 141.03 270.52 140.84
  A 0.37 0.36 26.9 0 0 270.13 140.96
  C 262.49 150.84 251.05 158.29 239.98 164.89
  Z
  M 100.41 259.65
  A 0.95 0.95 0.0 0 0 100.73 261.20
  Q 104.30 262.64 109.85 263.26
  Q 133.55 265.92 156.97 265.77
  Q 208.07 265.46 220.50 265.20
  C 223.87 265.13 232.28 264.53 234.63 261.45
  A 1.96 1.70 44.6 0 0 234.45 259.15
  C 230.73 254.76 214.38 254.95 209.29 255.31
  C 196.19 256.25 185.48 257.19 172.33 256.79
  C 150.61 256.12 137.03 255.62 118.31 256.44
  C 114.14 256.63 102.78 257.28 100.41 259.65
  Z"
/>
<path fill="#73290b" d="
  M 182.76 46.06
  Q 182.70 46.11 182.36 45.98
  A 1.13 1.05 38.1 0 1 182.05 44.05
  Q 182.56 43.74 182.94 44.25
  A 1.37 1.36 -39.5 0 1 182.76 46.06
  Z"
/>
<path fill="#0d0301" d="
  M 161.93 231.03
  L 156.62 219.91
  C 171.74 215.66 183.42 208.34 192.23 195.30
  C 211.28 167.06 215.18 131.30 198.88 100.66
  Q 194.56 92.52 188.01 83.25
  Q 188.46 82.61 188.30 82.08
  Q 188.13 81.53 187.37 81.40
  Q 186.03 81.17 185.75 82.47
  Q 178.97 82.33 174.03 83.11
  C 158.69 85.53 148.03 98.10 140.47 111.52
  C 129.80 130.43 122.91 151.47 124.51 173.39
  Q 124.82 177.62 125.24 181.86
  L 117.10 175.92
  Q 112.79 160.92 114.45 148.02
  C 116.16 134.76 121.56 120.67 127.49 108.23
  Q 137.79 86.59 154.87 69.33
  Q 155.68 69.63 156.32 69.39
  Q 157.11 69.10 157.13 68.27
  Q 157.14 67.46 156.22 66.84
  C 168.36 63.71 179.01 65.27 189.27 72.57
  Q 208.27 86.09 214.62 108.95
  C 222.23 136.34 217.36 162.00 204.96 187.44
  A 3.27 3.18 -11.5 0 1 204.38 188.29
  Q 194.73 198.66 190.14 205.07
  Q 186.52 210.13 183.40 215.71
  Q 176.17 228.60 161.93 231.03
  Z
  M 140.4506 95.6995
  A 1.29 1.17 -178.2 0 0 141.7032 96.9094
  A 1.29 1.17 -178.2 0 0 143.0294 95.7805
  A 1.29 1.17 -178.2 0 0 141.7768 94.5706
  A 1.29 1.17 -178.2 0 0 140.4506 95.6995
  Z"
/>
<path fill="#be5b26" d="
  M 156.22 66.84
  Q 157.14 67.46 157.13 68.27
  Q 157.11 69.10 156.32 69.39
  Q 155.68 69.63 154.87 69.33
  Q 154.09 67.23 156.22 66.84
  Z"
/>
<path fill="#210501" d="
  M 185.75 82.47
  Q 186.12 83.94 188.01 83.25
  Q 194.56 92.52 198.88 100.66
  C 215.18 131.30 211.28 167.06 192.23 195.30
  C 183.42 208.34 171.74 215.66 156.62 219.91
  Q 145.09 197.55 125.24 181.86
  Q 124.82 177.62 124.51 173.39
  C 122.91 151.47 129.80 130.43 140.47 111.52
  C 148.03 98.10 158.69 85.53 174.03 83.11
  Q 178.97 82.33 185.75 82.47
  Z
  M 172.70 91.54
  Q 172.28 90.49 171.62 89.78
  A 0.22 0.21 26.7 0 0 171.25 89.90
  L 170.17 98.51
  C 161.88 98.98 156.53 102.61 150.10 107.46
  A 1.42 1.34 86.0 0 0 149.68 107.97
  L 146.29 115.26
  Q 145.69 115.50 145.46 115.98
  C 132.46 137.79 125.35 160.58 132.41 185.87
  A 1.93 1.91 -76.0 0 0 132.92 186.73
  Q 143.71 197.03 152.75 210.08
  A 0.88 0.87 69.3 0 0 153.57 210.46
  Q 161.26 209.61 166.54 208.21
  C 180.99 204.36 190.27 193.03 196.59 180.01
  Q 207.50 157.53 203.67 132.80
  C 201.45 118.48 194.85 103.75 182.01 96.12
  Q 178.12 93.81 172.70 91.54
  Z"
/>
<path fill="#be5b26" d="
  M 188.01 83.25
  Q 186.12 83.94 185.75 82.47
  Q 186.03 81.17 187.37 81.40
  Q 188.13 81.53 188.30 82.08
  Q 188.46 82.61 188.01 83.25
  Z"
/>
<path fill="#2f0700" d="
  M 145.46 115.98
  Q 145.35 116.65 145.63 116.83
  A 0.83 0.82 -57.0 0 0 146.81 116.57
  Q 147.04 116.18 146.85 115.58
  Q 146.75 115.25 146.29 115.26
  L 149.68 107.97
  A 1.42 1.34 86.0 0 1 150.10 107.46
  C 156.53 102.61 161.88 98.98 170.17 98.51
  L 166.04 109.17
  Q 136.46 126.78 134.14 161.87
  Q 133.32 174.29 139.12 184.30
  C 146.76 197.50 161.59 207.20 175.82 196.61
  Q 181.89 192.08 184.84 188.35
  Q 187.93 184.44 193.46 174.75
  Q 198.98 165.38 199.71 154.65
  Q 200.52 150.01 199.42 145.06
  Q 199.04 139.98 197.00 135.14
  L 193.71 127.40
  Q 191.79 123.00 189.17 118.57
  Q 181.13 104.93 172.70 91.54
  Q 178.12 93.81 182.01 96.12
  C 194.85 103.75 201.45 118.48 203.67 132.80
  Q 207.50 157.53 196.59 180.01
  C 190.27 193.03 180.99 204.36 166.54 208.21
  Q 161.26 209.61 153.57 210.46
  A 0.88 0.87 69.3 0 1 152.75 210.08
  Q 143.71 197.03 132.92 186.73
  A 1.93 1.91 -76.0 0 1 132.41 185.87
  C 125.35 160.58 132.46 137.79 145.46 115.98
  Z
  M 153.19 109.60
  A 1.14 1.14 0.0 0 0 152.05 108.46
  A 1.14 1.14 0.0 0 0 150.91 109.60
  A 1.14 1.14 0.0 0 0 152.05 110.74
  A 1.14 1.14 0.0 0 0 153.19 109.60
  Z"
/>
<path fill="#fa7f13" d="
  M 172.70 91.54
  Q 181.13 104.93 189.17 118.57
  Q 191.79 123.00 193.71 127.40
  C 191.48 137.96 188.06 148.80 179.84 156.12
  Q 181.37 147.79 178.74 138.53
  Q 177.53 134.23 176.34 132.56
  A 0.42 0.41 49.2 0 0 175.71 132.51
  C 169.39 139.02 167.31 145.88 166.15 154.55
  A 2.37 2.21 67.2 0 1 165.81 155.48
  Q 161.72 161.84 160.15 169.00
  L 159.41 177.39
  Q 153.64 177.29 148.21 179.78
  Q 145.38 176.26 141.60 173.80
  C 138.70 164.05 140.18 155.18 144.37 146.10
  Q 151.36 130.96 161.39 117.64
  Q 163.38 115.01 166.04 109.17
  L 170.17 98.51
  L 171.25 89.90
  A 0.22 0.21 26.7 0 1 171.62 89.78
  Q 172.28 90.49 172.70 91.54
  Z"
/>
<ellipse fill="#be5b26" cx="0.00" cy="0.00" transform="translate(141.74,95.74) rotate(-178.2)" rx="1.29" ry="1.17"/>
<path fill="#4f0f02" d="
  M 166.04 109.17
  Q 163.38 115.01 161.39 117.64
  Q 151.36 130.96 144.37 146.10
  C 140.18 155.18 138.70 164.05 141.60 173.80
  L 143.85 179.54
  L 144.69 181.47
  Q 147.58 187.43 152.31 192.50
  L 156.59 196.66
  A 0.79 0.79 0.0 0 0 157.63 196.73
  L 163.60 192.23
  L 167.70 198.57
  Q 169.12 196.86 170.48 195.69
  C 174.25 192.49 177.45 188.91 180.75 185.25
  Q 183.90 181.75 193.46 174.75
  Q 187.93 184.44 184.84 188.35
  Q 181.89 192.08 175.82 196.61
  C 161.59 207.20 146.76 197.50 139.12 184.30
  Q 133.32 174.29 134.14 161.87
  Q 136.46 126.78 166.04 109.17
  Z"
/>
<circle fill="#e56e1f" cx="152.05" cy="109.60" r="1.14"/>
<path fill="#73290b" d="
  M 146.29 115.26
  Q 146.75 115.25 146.85 115.58
  Q 147.04 116.18 146.81 116.57
  A 0.83 0.82 -57.0 0 1 145.63 116.83
  Q 145.35 116.65 145.46 115.98
  Q 145.69 115.50 146.29 115.26
  Z"
/>
<path fill="#e56e1f" d="
  M 197.00 135.14
  Q 194.56 142.41 192.97 145.25
  Q 187.46 155.05 186.09 157.89
  Q 181.26 167.92 172.26 171.68
  Q 172.20 171.53 172.28 171.28
  Q 175.11 166.82 177.77 162.28
  Q 178.62 160.83 179.84 156.12
  C 188.06 148.80 191.48 137.96 193.71 127.40
  L 197.00 135.14
  Z"
/>
<path fill="#ffc44f" d="
  M 179.84 156.12
  Q 178.62 160.83 177.77 162.28
  Q 175.11 166.82 172.28 171.28
  L 160.15 169.00
  Q 161.72 161.84 165.81 155.48
  A 2.37 2.21 67.2 0 0 166.15 154.55
  C 167.31 145.88 169.39 139.02 175.71 132.51
  A 0.42 0.41 49.2 0 1 176.34 132.56
  Q 177.53 134.23 178.74 138.53
  Q 181.37 147.79 179.84 156.12
  Z
  M 167.18 135.63
  A 1.03 1.03 0.0 0 0 166.15 134.60
  A 1.03 1.03 0.0 0 0 165.12 135.63
  A 1.03 1.03 0.0 0 0 166.15 136.66
  A 1.03 1.03 0.0 0 0 167.18 135.63
  Z"
/>
<circle fill="#fedd73" cx="166.15" cy="135.63" r="1.03"/>
<path fill="#be5b26" d="
  M 199.42 145.06
  C 196.96 149.70 194.28 153.25 191.52 157.30
  Q 190.87 158.26 187.82 163.85
  Q 184.73 169.51 179.42 173.24
  Q 182.15 170.61 182.55 167.55
  A 0.34 0.34 0.0 0 0 181.94 167.31
  Q 177.38 173.73 169.99 175.78
  L 172.26 171.68
  Q 181.26 167.92 186.09 157.89
  Q 187.46 155.05 192.97 145.25
  Q 194.56 142.41 197.00 135.14
  Q 199.04 139.98 199.42 145.06
  Z"
/>
<path fill="#be5b26" d="
  M 109.53 171.10
  Q 108.36 179.85 105.44 187.89
  C 101.48 185.87 96.90 182.78 92.49 182.04
  Q 82.03 175.45 75.18 166.07
  Q 68.02 156.28 67.68 142.67
  L 67.90 141.30
  A 0.26 0.26 0.0 0 1 68.35 141.17
  Q 77.97 151.84 91.06 159.93
  Q 103.31 167.51 109.53 171.10
  Z"
/>
<path fill="#be5b26" d="
  M 270.79 142.17
  Q 270.33 163.43 254.27 176.52
  Q 249.99 180.01 245.70 182.76
  Q 237.99 174.96 239.98 164.89
  C 251.05 158.29 262.49 150.84 270.13 140.96
  A 0.37 0.36 26.9 0 1 270.52 140.84
  Q 271.19 141.03 270.79 142.17
  Z"
/>
<path fill="#181716" d="
  M 270.79 142.17
  Q 271.59 143.98 272.07 146.72
  C 274.67 161.52 274.69 177.24 270.25 191.43
  Q 267.03 201.72 266.12 203.65
  Q 263.03 210.25 256.63 218.89
  C 251.49 225.81 243.91 231.10 235.62 235.82
  Q 228.25 240.03 221.00 242.28
  Q 206.41 246.80 198.27 247.52
  C 190.08 248.23 181.83 249.60 173.61 249.71
  Q 181.68 243.67 191.26 240.27
  Q 200.73 236.78 208.45 232.90
  C 228.37 222.89 238.22 205.31 243.39 184.08
  L 245.70 182.76
  Q 249.99 180.01 254.27 176.52
  Q 270.33 163.43 270.79 142.17
  Z"
/>
<path fill="#181716" d="
  M 67.68 142.67
  Q 68.02 156.28 75.18 166.07
  Q 82.03 175.45 92.49 182.04
  L 93.34 182.65
  Q 95.33 196.42 99.22 213.51
  Q 101.45 223.32 101.75 235.07
  Q 95.43 231.22 92.00 228.25
  Q 78.31 216.36 71.42 200.14
  Q 68.87 194.14 66.19 181.55
  C 64.96 175.74 65.09 170.12 64.65 162.26
  Q 64.17 153.55 67.68 142.67
  Z"
/>
<path fill="#9e3c0e" d="
  M 199.42 145.06
  Q 200.52 150.01 199.71 154.65
  C 196.12 160.56 193.03 167.77 188.37 172.61
  Q 178.78 182.57 166.31 191.21
  Q 165.84 183.32 169.99 175.78
  Q 177.38 173.73 181.94 167.31
  A 0.34 0.34 0.0 0 1 182.55 167.55
  Q 182.15 170.61 179.42 173.24
  Q 178.73 173.79 178.35 174.40
  A 0.12 0.12 0.0 0 0 178.53 174.56
  Q 179.23 174.00 179.42 173.24
  Q 184.73 169.51 187.82 163.85
  Q 190.87 158.26 191.52 157.30
  C 194.28 153.25 196.96 149.70 199.42 145.06
  Z"
/>
<path fill="#73290b" d="
  M 199.71 154.65
  Q 198.98 165.38 193.46 174.75
  Q 183.90 181.75 180.75 185.25
  C 177.45 188.91 174.25 192.49 170.48 195.69
  Q 169.12 196.86 167.70 198.57
  L 166.31 191.21
  Q 178.78 182.57 188.37 172.61
  C 193.03 167.77 196.12 160.56 199.71 154.65
  Z"
/>
<path fill="#e56e1f" d="
  M 239.98 164.89
  Q 237.99 174.96 245.70 182.76
  L 243.39 184.08
  L 232.76 189.97
  Q 229.25 189.86 227.61 190.63
  Q 222.10 193.23 216.37 195.09
  A 0.45 0.45 0.0 0 1 215.79 194.75
  Q 214.19 187.09 217.28 179.64
  Q 228.12 171.75 239.98 164.89
  Z"
/>
<path fill="#fedd73" d="
  M 172.28 171.28
  Q 172.20 171.53 172.26 171.68
  L 169.99 175.78
  Q 165.84 183.32 166.31 191.21
  L 167.70 198.57
  L 163.60 192.23
  L 161.06 186.77
  L 159.62 180.05
  L 159.41 177.39
  L 160.15 169.00
  L 172.28 171.28
  Z"
/>
<path fill="#e56e1f" d="
  M 115.95 175.18
  C 116.87 180.47 118.53 187.18 116.46 192.31
  A 0.49 0.48 -66.7 0 1 115.81 192.57
  L 105.44 187.89
  Q 108.36 179.85 109.53 171.10
  L 115.95 175.18
  Z"
/>
<path fill="#be5b26" d="
  M 179.42 173.24
  Q 179.23 174.00 178.53 174.56
  A 0.12 0.12 0.0 0 1 178.35 174.40
  Q 178.73 173.79 179.42 173.24
  Z"
/>
<path fill="#e56e1f" d="
  M 148.21 179.78
  L 143.85 179.54
  L 141.60 173.80
  Q 145.38 176.26 148.21 179.78
  Z"
/>
<path fill="#fa7f13" d="
  M 115.95 175.18
  L 117.10 175.92
  L 125.24 181.86
  Q 145.09 197.55 156.62 219.91
  L 161.93 231.03
  L 163.23 234.27
  Q 161.65 232.27 160.32 230.31
  Q 158.51 227.63 157.44 226.34
  Q 141.29 207.01 118.52 196.12
  C 110.06 191.57 102.23 188.12 93.34 182.65
  L 92.49 182.04
  C 96.90 182.78 101.48 185.87 105.44 187.89
  L 115.81 192.57
  A 0.49 0.48 -66.7 0 0 116.46 192.31
  C 118.53 187.18 116.87 180.47 115.95 175.18
  Z"
/>
<path fill="#be5b26" d="
  M 159.41 177.39
  L 159.62 180.05
  C 156.53 179.37 155.00 180.26 152.65 181.56
  C 149.93 183.06 147.46 182.87 144.69 181.47
  L 143.85 179.54
  L 148.21 179.78
  Q 153.64 177.29 159.41 177.39
  Z"
/>
<path fill="#9e3c0e" d="
  M 159.62 180.05
  L 161.06 186.77
  L 152.31 192.50
  Q 147.58 187.43 144.69 181.47
  C 147.46 182.87 149.93 183.06 152.65 181.56
  C 155.00 180.26 156.53 179.37 159.62 180.05
  Z"
/>
<path fill="#fa7f13" d="
  M 217.28 179.64
  Q 214.19 187.09 215.79 194.75
  A 0.45 0.45 0.0 0 0 216.37 195.09
  Q 222.10 193.23 227.61 190.63
  Q 229.25 189.86 232.76 189.97
  L 220.91 196.10
  Q 203.16 205.05 189.78 217.78
  Q 182.70 224.51 176.22 234.84
  Q 176.68 232.96 177.78 230.75
  Q 183.71 218.75 189.13 210.05
  Q 200.22 192.23 217.28 179.64
  Z"
/>
<path fill="#261712" d="
  M 118.52 196.12
  Q 124.80 216.32 136.63 234.04
  A 2.27 2.22 88.9 0 0 137.35 234.75
  Q 143.90 238.87 151.05 241.83
  C 156.46 244.07 162.09 247.44 167.80 249.99
  Q 149.76 249.53 141.16 248.04
  C 127.50 245.69 113.77 242.16 101.75 235.07
  Q 101.45 223.32 99.22 213.51
  Q 95.33 196.42 93.34 182.65
  C 102.23 188.12 110.06 191.57 118.52 196.12
  Z"
/>
<path fill="#261712" d="
  M 243.39 184.08
  C 238.22 205.31 228.37 222.89 208.45 232.90
  Q 200.73 236.78 191.26 240.27
  Q 197.67 235.30 205.37 228.09
  Q 219.60 214.78 220.91 196.10
  L 232.76 189.97
  L 243.39 184.08
  Z"
/>
<path fill="#73290b" d="
  M 161.06 186.77
  L 163.60 192.23
  L 157.63 196.73
  A 0.79 0.79 0.0 0 1 156.59 196.66
  L 152.31 192.50
  L 161.06 186.77
  Z"
/>
<path fill="#35160c" d="
  M 163.23 234.27
  L 169.21 248.89
  A 0.81 0.73 -29.4 0 1 168.91 249.80
  Q 168.70 249.95 167.80 249.99
  C 162.09 247.44 156.46 244.07 151.05 241.83
  Q 143.90 238.87 137.35 234.75
  A 2.27 2.22 88.9 0 1 136.63 234.04
  Q 124.80 216.32 118.52 196.12
  Q 141.29 207.01 157.44 226.34
  Q 158.51 227.63 160.32 230.31
  Q 161.65 232.27 163.23 234.27
  Z"
/>
<path fill="#35160c" d="
  M 220.91 196.10
  Q 219.60 214.78 205.37 228.09
  Q 197.67 235.30 191.26 240.27
  Q 181.68 243.67 173.61 249.71
  Q 171.58 250.41 170.35 249.77
  A 0.58 0.57 -65.3 0 1 170.08 249.03
  L 176.22 234.84
  Q 182.70 224.51 189.78 217.78
  Q 203.16 205.05 220.91 196.10
  Z"
/>
<path fill="#0d0301" d="
  M 100.41 259.65
  C 102.78 257.28 114.14 256.63 118.31 256.44
  C 137.03 255.62 150.61 256.12 172.33 256.79
  C 185.48 257.19 196.19 256.25 209.29 255.31
  C 214.38 254.95 230.73 254.76 234.45 259.15
  A 1.96 1.70 44.6 0 1 234.63 261.45
  C 232.28 264.53 223.87 265.13 220.50 265.20
  Q 208.07 265.46 156.97 265.77
  Q 133.55 265.92 109.85 263.26
  Q 104.30 262.64 100.73 261.20
  A 0.95 0.95 0.0 0 1 100.41 259.65
  Z
  M 214.41 262.36
  A 0.74 0.72 53.1 0 0 214.59 260.93
  Q 205.87 257.90 196.35 258.03
  Q 186.34 258.17 173.12 257.72
  C 158.76 257.22 143.10 257.42 133.34 257.91
  Q 127.72 258.19 123.44 259.20
  A 1.51 1.51 0.0 0 0 123.41 262.13
  C 127.76 263.23 132.24 263.93 136.97 264.12
  Q 174.77 265.64 213.55 263.15
  A 0.68 0.67 6.0 0 0 214.16 262.66
  Q 214.24 262.37 214.41 262.36
  Z"
/>
<path fill="#261712" d="
  M 214.41 262.36
  Q 214.24 262.37 214.16 262.66
  A 0.68 0.67 6.0 0 1 213.55 263.15
  Q 174.77 265.64 136.97 264.12
  C 132.24 263.93 127.76 263.23 123.41 262.13
  A 1.51 1.51 0.0 0 1 123.44 259.20
  Q 127.72 258.19 133.34 257.91
  C 143.10 257.42 158.76 257.22 173.12 257.72
  Q 186.34 258.17 196.35 258.03
  Q 205.87 257.90 214.59 260.93
  A 0.74 0.72 53.1 0 1 214.41 262.36
  Z"
/>
</svg>
